PathFileType	4	(X/Y/Z)	C:\Documents and Settings\mvidt\Desktop\Forward_reach_ACS_12-5-11\acs_forward8.trc
DataRate	CameraRate	NumFrames	NumMarkers	Units	OrigDataRate	OrigDataStartFrame	OrigNumFrames
200.00	200.00	      17	10	mm	200.00	376	      1000
Frame#	Time	R.Clavicle			C7			R.Shoulder			R.Bicep			R.Elbow.Lateral			R.Forearm			R.Radius			Handle			R.Elbow.Medial			R.Ulna			
		X1	Y1	Z1	X2	Y2	Z2	X3	Y3	Z3	X4	Y4	Z4	X5	Y5	Z5	X6	Y6	Z6	X7	Y7	Z7	X8	Y8	Z8	X9	Y9	Z9	X10	Y10	Z10	

376	1.875	-380.90466	345.68222	306.67166				-396.43762	178.96521	318.17062	-236.37457	154.65582	229.33734	-171.87292	102.92150	144.05997	-65.28101	114.94321	186.20595	98.71653	123.12164	185.70712	222.95612	114.92426	214.22032	-163.05029	185.97711	109.97149	88.86740	62.97838	123.94862	
377	1.880	-380.90466	345.68222	306.67166				-396.43762	178.96521	318.17062	-236.37457	154.65582	229.33734	-171.87292	102.92150	144.05997	-63.92443	115.44036	187.31187	99.39005	122.89882	184.49892	223.11050	114.49302	213.58521	-163.07680	185.98514	110.00828	89.17288	62.99452	123.59908	
378	1.885	-380.90466	345.68222	306.67166				-395.91794	179.05910	318.13501	-236.37457	154.65582	229.33734	-171.44217	102.25245	143.70102	-63.67437	115.16330	187.50102	99.88737	122.38598	184.02774	223.73615	114.69779	212.77528	-162.93132	186.69055	109.67083	89.62512	63.39532	123.02201	
379	1.890	-380.89444	345.59119	306.18588				-395.91794	179.05910	318.13501	-236.17488	154.13846	229.30984	-171.87292	102.92150	144.05997	-63.92443	115.44036	187.31187	100.00669	122.55804	183.69678	223.96162	114.39446	212.48895	-163.07146	186.01036	109.56801	89.75430	63.13017	122.92929	
380	1.895	-380.90466	345.68222	306.67166				-395.78418	179.06299	318.21616	-236.04204	153.79327	229.29161	-171.27032	104.21917	143.93326	-63.66679	115.38274	187.21590	100.11665	122.34825	183.34335	224.24452	113.89726	211.88834	-162.80412	186.78285	109.88230	89.76077	62.87859	122.80970	
381	1.900	-380.90466	345.68222	306.67166				-395.65787	179.13292	318.26379	-235.85329	154.91284	229.49394	-171.27032	104.21917	143.93326	-63.66679	115.38274	187.21590	101.10596	122.20755	182.68262	224.55247	113.62830	210.75800	-162.83521	186.88594	109.83719	89.95189	62.92794	122.48740	
382	1.905	-380.89444	345.59119	306.18588				-395.61356	179.27676	318.22824	-235.85329	154.91284	229.49394	-170.99905	104.26407	144.44296	-63.66679	115.38274	187.21590	100.94128	122.55980	182.18666	225.47771	112.91817	209.87166	-162.55156	186.27293	110.15048	89.51383	62.84219	121.33643	
383	1.910	-380.89444	345.59119	306.18588				-395.73184	179.38466	318.08322	-235.60760	154.73402	229.88873	-170.99905	104.26407	144.44296	-63.11839	115.13924	187.46579	101.62362	121.81298	182.00758	225.58234	112.71709	209.16264	-162.50819	186.27350	110.27117	89.40086	62.84380	120.46420	
384	1.915	-380.89444	345.59119	306.18588				-395.61356	179.27676	318.22824	-235.36192	154.55519	230.28351	-170.59229	104.33111	145.20773	-63.37701	114.77189	186.12277	101.99893	121.12952	181.57231	225.77461	112.19646	208.80501	-161.99971	186.28462	110.90348	89.52985	62.57862	120.37157	
385	1.920	-380.89444	345.59119	306.18588				-395.61356	179.27676	318.22824	-235.11624	154.37637	230.67828	-170.59229	104.33111	145.20773	-63.37701	114.77189	186.12277	102.38407	121.07990	181.51474	226.45380	112.35837	208.24191	-162.02634	186.29265	110.94016	89.52985	62.57862	120.37157	
386	1.925	-380.90466	345.68222	306.67166				-395.61356	179.27676	318.22824	-234.87056	154.19754	231.07307	-170.09024	104.11217	145.67509	-62.91657	114.17896	186.14290	102.28943	121.19019	181.33781	226.88467	111.53316	207.33482	-161.45187	186.98091	111.66914	89.70340	62.14899	119.58032	
387	1.930	-380.90466	345.68222	306.67166				-395.53107	179.39336	318.22833	-234.62488	154.01872	231.46785	-170.09024	104.11217	145.67509	-62.81642	114.92553	186.69057	102.18916	121.43105	181.09615	227.12611	111.28626	206.54884	-161.46191	187.07384	111.65543	89.70340	62.14899	119.58032	
388	1.935	-380.90466	345.68222	306.67166				-395.53107	179.39336	318.22833	-234.37920	153.83990	231.86264	-169.92159	104.34360	145.80997	-62.81642	114.92553	186.69057	103.50332	120.83372	180.42641	227.09052	110.91782	206.10123	-161.34071	187.08038	111.85975	89.70340	62.14899	119.58032	
389	1.940	-380.90466	345.68222	306.67166				-395.53107	179.39336	318.22833	-234.22098	154.03795	231.92712	-169.75293	104.57503	145.94484	-62.31792	114.31347	186.83475	103.77724	120.73453	179.92097	227.73686	110.61768	205.15239	-161.21974	187.08694	112.06413	90.13626	61.64042	119.23344	
390	1.945	-380.90466	345.68222	306.67166				-395.38126	179.26651	318.34000	-234.06274	154.23599	231.99159	-169.58427	104.80646	146.07971	-61.77926	113.84116	186.99631	103.39469	120.36491	179.07582	227.88135	109.88219	204.52162	-161.12892	187.18610	112.15919	89.72021	61.61388	117.98997	
391	1.950	-380.90466	345.68222	306.67166				-395.53107	179.39336	318.22833	-233.90451	154.43404	232.05606	-169.41562	105.03789	146.21457	-61.79768	114.16806	187.18358	103.26210	120.01575	178.61185	228.49310	109.23264	203.68062	-160.97838	187.10014	112.47297	90.65984	60.84784	118.24951	
392	1.955	-380.90466	345.68222	306.67166				-395.53107	179.39336	318.22833	-233.74629	154.63208	232.12054	-169.24698	105.26933	146.34944	-60.69152	114.14735	186.88766	103.42226	119.71914	178.22653	228.94061	108.98815	202.88985	-160.85800	187.10678	112.67745	90.18596	60.65884	116.94918	
